# xmcd
#
# Track frame offsets:
#	150
#	25282
#	51450
#	78931
#	100419
#	122858
#	145706
#	169740
#	185387
#	205436
#	225242
#	245777
#	272625
#	286122
#
# Disc length: 4127 seconds
# Revision: 0
# Processed by: cddbd v1.5.2PL0 Copyright (c) Steve Scherf et al.
# Submitted via: dBpowerAMP V12.0
#
DISCID=c6101d0e
DTITLE=Tom Giblin - Choice Cuts
DYEAR=1999
DGENRE=Blues
TTITLE0=Don't Change Horses
TTITLE1=Sweet Baby Jane
TTITLE2=No Woman No Cry
TTITLE3=Only You
TTITLE4=Don't Ya Tell Me
TTITLE5=Going Down Slow
TTITLE6=No Money Down
TTITLE7=Pap's Got a Brand New Bag
TTITLE8=Let Me Be Your Fire
TTITLE9=Tighten Up
TTITLE10=Love The One You're With
TTITLE11=Ain't No Sunshine
TTITLE12=Don't Keep Me Wonderin'
TTITLE13=Imperfection
EXTD=
EXTT0=
EXTT1=
EXTT2=
EXTT3=
EXTT4=
EXTT5=
EXTT6=
EXTT7=
EXTT8=
EXTT9=
EXTT10=
EXTT11=
EXTT12=
EXTT13=
PLAYORDER=
